<?xml version="1.0" encoding="UTF-8"?>
<svg id="Layer_2" data-name="Layer 2" xmlns="http://www.w3.org/2000/svg" viewBox="0 0 410.7 134.99">
  <defs>
    <style>
      .cls-1 {
        fill: #fff;
      }
    </style>
  </defs>
  <g id="Layer_1-2" data-name="Layer 1">
    <g>
      <path class="cls-1" d="M122.45,122.24l-23.2-37.94c-.14-.23-.05-.53.19-.66,14.38-7.29,24.23-22.22,24.23-39.44C123.67,19.79,103.88,0,79.47,0c-.25,0-.5,0-.74,0-.25,0-.49,0-.74,0H21.31C9.54,0,0,9.54,0,21.31v70.68c0,4.63,1.9,9.07,5.25,12.26l31.46,29.98c1.54,1.47,4.09.6,4.41-1.5,2.87-19.04,4.79-45.52,5.54-52.66.33-3.11.5-6.23.51-9.35l.03-6.3h-.73c-.73,0-1.32-.6-1.32-1.34v-1.42s-.49,0-.49,0c-.51,0-.93-.37-1.01-.87l-3.86-23.88,9.61.05,1.32,9.62,4.12.02-1.33-9.62,10.99.06-1.42,9.61,4.12.02,1.42-9.61,9.61.05-4.1,23.84c-.09.5-.52.86-1.02.86h-.5s0,1.42,0,1.42c0,.73-.6,1.32-1.33,1.32h-.73s-.03,6.3-.03,6.3c-.02,3.12.12,6.25.42,9.35.67,7.06,2.29,33.01,4.91,52.01.22,1.59,1.58,2.78,3.19,2.78h36.24c6.55,0,10.57-7.17,7.15-12.75Z"/>
      <g>
        <path class="cls-1" d="M199.68,70.82c2.34-3.43,3.52-7.75,3.52-12.96v-1.54c0-5.27-1.16-9.63-3.47-13.1-2.31-3.47-5.62-6.08-9.92-7.85-4.3-1.77-9.38-2.65-15.22-2.65h-27.65v70.9h15.8v-22.54h11.51l15.36,22.54h18.3l-17.96-25.18c4.17-1.7,7.42-4.24,9.73-7.62ZM162.73,46.11h13.1c2.31,0,4.32.47,6.02,1.4,1.7.93,3.02,2.25,3.95,3.95.93,1.7,1.4,3.68,1.4,5.92s-.47,4.22-1.4,5.92c-.93,1.7-2.25,3.02-3.95,3.95-1.7.93-3.71,1.4-6.02,1.4h-13.1v-22.54Z"/>
        <path class="cls-1" d="M258.59,57.09c-2.5-2.5-5.54-4.48-9.1-5.92-3.56-1.45-7.63-2.17-12.19-2.17s-8.45.72-12.04,2.17c-3.6,1.44-6.66,3.42-9.2,5.92-2.54,2.5-4.46,5.41-5.78,8.72-1.32,3.31-1.97,6.79-1.97,10.45v2.22c0,3.6.64,7.02,1.93,10.26,1.28,3.24,3.16,6.12,5.64,8.62,2.47,2.5,5.51,4.48,9.1,5.92,3.6,1.45,7.71,2.17,12.33,2.17s8.83-.72,12.43-2.17c3.6-1.44,6.63-3.42,9.1-5.92,2.47-2.5,4.35-5.38,5.64-8.62,1.28-3.24,1.93-6.66,1.93-10.26v-2.22c0-3.66-.67-7.14-2.02-10.45-1.35-3.31-3.28-6.21-5.78-8.72ZM249.39,85.13c-1.06,2.31-2.59,4.11-4.58,5.39-1.99,1.29-4.5,1.93-7.51,1.93s-5.36-.64-7.42-1.93c-2.06-1.28-3.6-3.08-4.62-5.39-1.03-2.31-1.54-4.88-1.54-7.71,0-3.02.53-5.67,1.59-7.95,1.06-2.28,2.62-4.09,4.67-5.44,2.05-1.35,4.49-2.02,7.32-2.02s5.35.67,7.37,2.02,3.58,3.16,4.67,5.44c1.09,2.28,1.64,4.93,1.64,7.95,0,2.83-.53,5.39-1.59,7.71Z"/>
        <path class="cls-1" d="M320.34,57.09c-2.5-2.5-5.54-4.48-9.1-5.92-3.56-1.45-7.63-2.17-12.19-2.17s-8.45.72-12.04,2.17c-3.6,1.44-6.66,3.42-9.2,5.92-2.54,2.5-4.46,5.41-5.78,8.72-1.32,3.31-1.97,6.79-1.97,10.45v2.22c0,3.6.64,7.02,1.93,10.26,1.28,3.24,3.16,6.12,5.64,8.62,2.47,2.5,5.51,4.48,9.1,5.92,3.6,1.45,7.71,2.17,12.33,2.17s8.83-.72,12.43-2.17c3.6-1.44,6.63-3.42,9.1-5.92,2.47-2.5,4.35-5.38,5.64-8.62,1.28-3.24,1.93-6.66,1.93-10.26v-2.22c0-3.66-.67-7.14-2.02-10.45-1.35-3.31-3.28-6.21-5.78-8.72ZM311.14,85.13c-1.06,2.31-2.59,4.11-4.58,5.39-1.99,1.29-4.5,1.93-7.51,1.93s-5.36-.64-7.42-1.93c-2.06-1.28-3.6-3.08-4.62-5.39-1.03-2.31-1.54-4.88-1.54-7.71,0-3.02.53-5.67,1.59-7.95,1.06-2.28,2.62-4.09,4.67-5.44,2.05-1.35,4.49-2.02,7.32-2.02s5.35.67,7.37,2.02,3.58,3.16,4.67,5.44c1.09,2.28,1.64,4.93,1.64,7.95,0,2.83-.53,5.39-1.59,7.71Z"/>
        <polygon class="cls-1" points="385.85 50.83 369.66 50.83 350.49 75.93 350.49 33.3 335.08 33.3 335.08 103.62 350.49 103.62 350.49 78.96 355.6 78.96 372.26 103.62 389.6 103.62 368.47 73.34 385.85 50.83"/>
        <path class="cls-1" d="M401.26,45.63c2.89,0,5.02-.75,6.41-2.26,1.38-1.51,2.07-3.42,2.07-5.73s-.69-4.32-2.07-5.83c-1.38-1.51-3.52-2.26-6.41-2.26s-5.03.76-6.41,2.26c-1.38,1.51-2.07,3.45-2.07,5.83s.69,4.22,2.07,5.73c1.38,1.51,3.52,2.26,6.41,2.26Z"/>
        <polygon class="cls-1" points="395.29 50.83 388.25 50.83 388.25 62.2 395.29 62.2 395.29 103.62 410.7 103.62 410.7 62.2 410.7 50.83 395.29 50.83"/>
      </g>
    </g>
  </g>
</svg>
