<?xml version="1.0" encoding="UTF-8"?>
<svg id="Layer_2" data-name="Layer 2" xmlns="http://www.w3.org/2000/svg" xmlns:xlink="http://www.w3.org/1999/xlink" viewBox="0 0 123.69 134.99">
  <defs>
    <style>
      .cls-1 {
        fill: url(#linear-gradient);
      }
    </style>
    <linearGradient id="linear-gradient" x1="17.06" y1="116.07" x2="115.45" y2="17.68" gradientUnits="userSpaceOnUse">
      <stop offset="0" stop-color="#4a2eff"/>
      <stop offset=".52" stop-color="#00cdff"/>
      <stop offset="1" stop-color="#00ff65"/>
    </linearGradient>
  </defs>
  <g id="Layer_1-2" data-name="Layer 1">
    <path class="cls-1" d="M122.45,122.24l-23.2-37.94c-.14-.23-.05-.53.19-.66,14.38-7.29,24.23-22.22,24.23-39.44C123.67,19.79,103.88,0,79.47,0c-.25,0-.5,0-.74,0-.25,0-.49,0-.74,0H21.31C9.54,0,0,9.54,0,21.31v70.68c0,4.63,1.9,9.07,5.25,12.26l31.46,29.98c1.54,1.47,4.09.6,4.41-1.5,2.87-19.04,4.79-45.52,5.54-52.66.33-3.11.5-6.23.51-9.35l.03-6.3h-.73c-.73,0-1.32-.6-1.32-1.34v-1.42s-.49,0-.49,0c-.51,0-.93-.37-1.01-.87l-3.86-23.88,9.61.05,1.32,9.62,4.12.02-1.33-9.62,10.99.06-1.42,9.61,4.12.02,1.42-9.61,9.61.05-4.1,23.84c-.09.5-.52.86-1.02.86h-.5s0,1.42,0,1.42c0,.73-.6,1.32-1.33,1.32h-.73s-.03,6.3-.03,6.3c-.02,3.12.12,6.25.42,9.35.67,7.06,2.29,33.01,4.91,52.01.22,1.59,1.58,2.78,3.19,2.78h36.24c6.55,0,10.57-7.17,7.15-12.75Z"/>
  </g>
</svg>
